<?xml version="1.0" encoding="UTF-8"?>
<svg version="1.1" xmlns="http://www.w3.org/2000/svg" width="140" height="65">
<path d="M0 0 C52.8 0 105.6 0 160 0 C160 24.09 160 48.18 160 73 C107.2 73 54.4 73 0 73 C0 48.91 0 24.82 0 0 Z " fill="#020101" transform="translate(0,0)"/>
<path d="M0 0 C2.5625 1.625 2.5625 1.625 4.5625 3.625 C4.5625 4.945 4.5625 6.265 4.5625 7.625 C1.25 7.8125 1.25 7.8125 -2.4375 7.625 C-3.4375 6.625 -4.4375 5.625 -5.4375 4.625 C-8.58671909 4.85783149 -8.58671909 4.85783149 -11.4375 5.625 C-11.43238194 7.57061536 -11.43238194 7.57061536 -10.4375 9.625 C-7.54065127 11.10917909 -7.54065127 11.10917909 -4.0625 12.1875 C3.61608524 14.7839174 3.61608524 14.7839174 5.5625 17.625 C6.18512378 20.67080823 6.07722236 23.5643391 5.5625 26.625 C3.68629387 29.12660818 2.32358697 30.24445652 -0.4375 31.625 C-2.53803716 31.77401491 -4.64437825 31.84638453 -6.75 31.875 C-7.88050781 31.90078125 -9.01101562 31.9265625 -10.17578125 31.953125 C-13.7535945 31.59320127 -15.57512522 30.75369749 -18.4375 28.625 C-20.17273928 25.98082586 -20.4375 24.84034057 -20.4375 21.625 C-17.125 21.375 -17.125 21.375 -13.4375 21.625 C-12.98375 22.285 -12.53 22.945 -12.0625 23.625 C-10.6334552 25.85648511 -10.6334552 25.85648511 -8.26171875 25.890625 C-5.97558952 25.87640336 -3.71690198 25.79703034 -1.4375 25.625 C-1.43917341 23.1851553 -1.43917341 23.1851553 -2.4375 20.625 C-5.28741809 19.0990085 -5.28741809 19.0990085 -8.75 18.125 C-13.85929477 16.52298148 -16.51973334 15.20299708 -19.4375 10.625 C-20.09172668 6.69963991 -19.79093315 5.17343075 -17.625 1.8125 C-12.91919125 -2.89330875 -5.82897057 -2.33158823 0 0 Z " fill="#F30000" transform="translate(43.4375,18.375)"/>
<path d="M0 0 C2.31 0 4.62 0 7 0 C7.33 3.63 7.66 7.26 8 11 C8.99 10.34 9.98 9.68 11 9 C14.55347654 8.53650306 16.47872344 8.73061036 19.67578125 10.3828125 C23.21793558 14.37145687 22.54647302 18.10979279 22.3125 23.25 C22.28994141 24.18585937 22.26738281 25.12171875 22.24414062 26.0859375 C22.18530595 28.39225674 22.10317146 30.69530838 22 33 C20.02 33 18.04 33 16 33 C15.67 27.39 15.34 21.78 15 16 C10.28941438 14.6278958 10.28941438 14.6278958 7 16 C7 21.61 7 27.22 7 33 C4.69 33 2.38 33 0 33 C0 22.11 0 11.22 0 0 Z " fill="#EEEEEE" transform="translate(100,17)"/>
<path d="M0 0 C3.16118708 1.63913404 5.26864575 3.00269875 7.375 5.875 C8 8 8 8 8 14 C2.39 14 -3.22 14 -9 14 C-8.01 15.65 -7.02 17.3 -6 19 C-3.45672892 19.66685938 -3.45672892 19.66685938 -1 19 C-0.34 18.01 0.32 17.02 1 16 C4.625 15.8125 4.625 15.8125 8 16 C6.71915974 19.94925745 5.56995402 21.85432815 2 24 C-3.14784445 24.85158083 -7.61650697 24.83009582 -12.125 22.125 C-15.74743042 18.01957886 -15.3848539 14.24203828 -15.359375 8.9296875 C-15 6 -15 6 -12.625 2.8125 C-8.42832022 -0.08520746 -5.05949869 -0.6865119 0 0 Z " fill="#EBEBEB" transform="translate(69,26)"/>
<path d="M0 0 C1.98 0 3.96 0 6 0 C6 1.65 6 3.3 6 5 C7.65 5 9.3 5 11 5 C11 6.65 11 8.3 11 10 C9.35 10 7.7 10 6 10 C6.33 14.29 6.66 18.58 7 23 C8.32 23.33 9.64 23.66 11 24 C11 25.65 11 27.3 11 29 C3.54148472 29.36681223 3.54148472 29.36681223 1.0625 27.6875 C-1.19846195 24.09656043 -1.10683493 20.93564838 -1.0625 16.8125 C-1.05347656 15.72582031 -1.04445313 14.63914062 -1.03515625 13.51953125 C-1.02355469 12.68808594 -1.01195313 11.85664062 -1 11 C-2.32 11 -3.64 11 -5 11 C-5 9.02 -5 7.04 -5 5 C-3.35 5 -1.7 5 0 5 C0 3.35 0 1.7 0 0 Z " fill="#EAEAEA" transform="translate(84,21)"/>
<path d="M0 0 C2.31 0 4.62 0 7 0 C7 7.92 7 15.84 7 24 C4.69 24 2.38 24 0 24 C0 16.08 0 8.16 0 0 Z " fill="#E6E6E6" transform="translate(129,26)"/>
<path d="M0 0 C1.67542976 0.28604898 3.34385343 0.61781233 5 1 C5.5625 2.9375 5.5625 2.9375 6 5 C5 6 5 6 2.4375 6.0625 C1.2309375 6.0315625 1.2309375 6.0315625 0 6 C-0.38218767 4.34385343 -0.71395102 2.67542976 -1 1 C-0.67 0.67 -0.34 0.34 0 0 Z " fill="#EEEEEE" transform="translate(130,17)"/>
<path d="M0 0 C1.98 0 3.96 0 6 0 C6.66 1.32 7.32 2.64 8 4 C4.7 4 1.4 4 -2 4 C-1.34 2.68 -0.68 1.36 0 0 Z " fill="#090909" transform="translate(62,31)"/>
</svg>
