<?xml version="1.0" encoding="UTF-8"?>
<svg version="1.1" xmlns="http://www.w3.org/2000/svg" width="250" height="114">
<path d="M0 0 C82.5 0 165 0 250 0 C250 37.62 250 75.24 250 114 C167.5 114 85 114 0 114 C0 76.38 0 38.76 0 0 Z " fill="#010101" transform="translate(0,0)"/>
<path d="M0 0 C3.90382773 2.38992504 5.52839703 5.27459307 7.3125 9.4375 C7.3125 10.7575 7.3125 12.0775 7.3125 13.4375 C3.60493911 13.72076017 0.00947887 13.89688791 -3.6875 13.4375 C-5.75 11 -5.75 11 -6.6875 8.4375 C-9.83091993 6.86579004 -13.24521451 7.20574217 -16.6875 7.4375 C-17.6775 7.7675 -18.6675 8.0975 -19.6875 8.4375 C-19.98860818 11.32654363 -19.98860818 11.32654363 -18.6875 14.4375 C-15.56361764 16.2961774 -12.12513285 17.29313012 -8.6875 18.4375 C5.22465987 23.48237976 5.22465987 23.48237976 8.3125 29.4375 C9.16535934 34.67984638 8.92867954 38.9640272 6.875 43.875 C1.56945947 49.18054053 -3.81938494 50.67673533 -11.25 50.875 C-18.27300463 50.62915386 -23.19647751 49.61051962 -28.625 44.875 C-31.75061854 41.18108718 -31.79137975 39.2159684 -31.6875 34.4375 C-28.0575 34.4375 -24.4275 34.4375 -20.6875 34.4375 C-20.0275 36.0875 -19.3675 37.7375 -18.6875 39.4375 C-17.55048403 40.80282549 -17.55048403 40.80282549 -14.52734375 40.53515625 C-13.23957031 40.52355469 -11.95179687 40.51195312 -10.625 40.5 C-9.33464844 40.49097656 -8.04429688 40.48195312 -6.71484375 40.47265625 C-5.21630859 40.45525391 -5.21630859 40.45525391 -3.6875 40.4375 C-3.6875 37.7975 -3.6875 35.1575 -3.6875 32.4375 C-4.76128906 32.05078125 -5.83507812 31.6640625 -6.94140625 31.265625 C-8.37772507 30.73991354 -9.81391622 30.21385317 -11.25 29.6875 C-11.95447266 29.43484375 -12.65894531 29.1821875 -13.38476562 28.921875 C-27.21753437 23.82223675 -27.21753437 23.82223675 -30.6875 17.4375 C-31.34524871 12.9080032 -31.19362456 8.89260811 -29.6875 4.5625 C-22.36911231 -3.21328693 -9.60571875 -4.16307886 0 0 Z " fill="#F70000" transform="translate(68.6875,28.5625)"/>
<path d="M0 0 C4.9041966 2.81691142 7.48125341 5.89649291 9.57421875 11.12890625 C9.57421875 14.09890625 9.57421875 17.06890625 9.57421875 20.12890625 C0.99421875 20.12890625 -7.58578125 20.12890625 -16.42578125 20.12890625 C-14.24518292 26.9771652 -14.24518292 26.9771652 -10.42578125 29.12890625 C-8.43026978 29.30480167 -8.43026978 29.30480167 -6.36328125 29.00390625 C-5.67105469 28.93945312 -4.97882813 28.875 -4.265625 28.80859375 C-1.87280237 28.1629985 -1.87280237 28.1629985 -0.42578125 24.12890625 C2.87421875 24.12890625 6.17421875 24.12890625 9.57421875 24.12890625 C9.49900768 27.2877712 9.19944202 29.42974913 7.0546875 31.828125 C1.19088052 36.92655086 -3.39377033 37.55089412 -11.12109375 37.46484375 C-16.76186094 36.89143243 -20.21440945 34.80019299 -23.796875 30.47265625 C-27.42031025 24.5547966 -27.13521414 17.8378642 -26.42578125 11.12890625 C-24.71981478 5.82145501 -21.8148004 3.32923271 -17.42578125 0.12890625 C-11.90977674 -1.70976192 -5.51719837 -1.98121616 0 0 Z " fill="#F4F4F4" transform="translate(110.42578125,41.87109375)"/>
<path d="M0 0 C2.97 0 5.94 0 9 0 C9 5.94 9 11.88 9 18 C10.11375 17.175 11.2275 16.35 12.375 15.5 C17.17043698 12.52410826 21.46537107 11.81730801 27 13 C30.11179766 14.7099171 32.38748754 16.77497508 34 20 C34.08573394 22.25120742 34.10712188 24.50499303 34.09765625 26.7578125 C34.0962413 27.42086395 34.09482635 28.08391541 34.09336853 28.76705933 C34.08776754 30.88641863 34.075215 33.00567259 34.0625 35.125 C34.05748512 36.56119639 34.05292219 37.99739444 34.04882812 39.43359375 C34.03779782 42.95576345 34.02053259 46.47787145 34 50 C30.7 50 27.4 50 24 50 C23.505 36.14 23.505 36.14 23 22 C15.75776697 21.43978767 15.75776697 21.43978767 12.53808594 23.13989258 C10.41222028 25.71084026 10.45790604 27.44812731 10.390625 30.76171875 C10.35839844 31.87998047 10.32617188 32.99824219 10.29296875 34.15039062 C10.27169922 35.90125977 10.27169922 35.90125977 10.25 37.6875 C10.22035156 38.86634766 10.19070312 40.04519531 10.16015625 41.25976562 C10.08938344 44.17324632 10.03672275 47.08592336 10 50 C6.7 50 3.4 50 0 50 C0 33.5 0 17 0 0 Z " fill="#FAFAFA" transform="translate(157,28)"/>
<path d="M0 0 C2.97 0 5.94 0 9 0 C9 2.64 9 5.28 9 8 C11.97 8 14.94 8 18 8 C18 10.64 18 13.28 18 16 C15.36 16 12.72 16 10 16 C10.33 22.6 10.66 29.2 11 36 C14.465 36.495 14.465 36.495 18 37 C18 39.64 18 42.28 18 45 C7.15329169 45.62277751 7.15329169 45.62277751 2.875 43.3125 C-1.58617827 37.81038013 -1.24956019 32.46644886 -1.125 25.6875 C-1.11597656 24.75615234 -1.10695312 23.82480469 -1.09765625 22.86523438 C-1.07418263 20.5765564 -1.04134729 18.28841328 -1 16 C-2.98 16 -4.96 16 -7 16 C-7 13.36 -7 10.72 -7 8 C-4.69 8 -2.38 8 0 8 C0 5.36 0 2.72 0 0 Z " fill="#F0F0F0" transform="translate(131,33)"/>
<path d="M0 0 C3.3 0 6.6 0 10 0 C10 12.21 10 24.42 10 37 C6.7 37 3.4 37 0 37 C0 24.79 0 12.58 0 0 Z " fill="#F7F7F7" transform="translate(202,41)"/>
<path d="M0 0 C2.9375 1.8125 2.9375 1.8125 5 4 C5 4.99 5 5.98 5 7 C-0.28 7 -5.56 7 -11 7 C-9.30334739 0.21338958 -6.99096376 -0.84373701 0 0 Z " fill="#080808" transform="translate(105,48)"/>
<path d="M0 0 C3.5 0.25 3.5 0.25 5.5 2.25 C5.6875 5.3125 5.6875 5.3125 5.5 8.25 C3.60511048 10.14488952 0.92860854 9.43019112 -1.58984375 9.48046875 C-3.5 9.25 -3.5 9.25 -5.5 7.25 C-5.75 4.75 -5.75 4.75 -5.5 2.25 C-3.5 0.25 -3.5 0.25 0 0 Z " fill="#F3F3F3" transform="translate(206.5,26.75)"/>
</svg>
